<svg xmlns="http://www.w3.org/2000/svg" viewBox="0 0 300 300" style="enable-background:new 0 0 300 300" xml:space="preserve"><path d="M251.28 136.58c5.44-6.91 8.27-14.61 7.45-19.26-.83-4.72-6.14-10.87-13.7-15.35 2.74-8.36 2.78-16.56.42-20.65-2.4-4.15-9.49-8.11-18.13-9.74-.28-8.79-3.06-16.51-6.67-19.55-3.67-3.08-11.69-4.37-20.37-2.95-3.27-8.16-8.52-14.47-12.96-16.09-4.51-1.64-12.48-.11-20.15 4.19-5.87-6.55-12.96-10.69-17.68-10.69-4.8 0-11.77 4.16-17.5 10.83-7.75-4.15-15.83-5.61-20.27-4-4.51 1.64-9.63 7.94-12.74 16.16-8.71-1.25-16.79.14-20.41 3.18-3.67 3.08-6.34 10.75-6.44 19.54-8.61 1.8-15.73 5.88-18.09 9.97-2.4 4.15-2.28 12.27.63 20.57-7.47 4.64-12.77 10.9-13.59 15.55-.83 4.72 2.06 12.31 7.63 19.11-5.44 6.91-8.27 14.61-7.45 19.26.83 4.72 6.14 10.87 13.7 15.35-2.74 8.36-2.78 16.56-.42 20.65 2.4 4.15 9.49 8.11 18.13 9.74.28 8.79 3.06 16.51 6.67 19.55 3.67 3.08 11.69 4.37 20.37 2.95 3.27 8.16 8.52 14.47 12.96 16.09 4.51 1.64 12.48.11 20.15-4.19 5.87 6.55 12.96 10.69 17.68 10.69 4.8 0 11.77-4.16 17.5-10.83 7.75 4.15 15.83 5.61 20.27 4 4.51-1.64 9.63-7.94 12.74-16.16 8.71 1.25 16.79-.14 20.41-3.18 3.67-3.08 6.34-10.75 6.44-19.54 8.61-1.8 15.73-5.88 18.09-9.97 2.4-4.15 2.28-12.27-.63-20.57 7.47-4.64 12.77-10.9 13.59-15.55.83-4.72-2.06-12.31-7.63-19.11zM150.5 156.5c-.97.81-2.2 2.18-3.61 3.99-1.09-3.37-2.18-5.32-3.09-4.99-1.19.42-2.82 1.29-4.76 2.51.13-3.55-.23-5.74-1.19-5.75-1.26-.01-3.09.25-5.33.73 1.33-3.29 1.75-5.47.84-5.81-1.18-.44-2.99-.82-5.26-1.14 2.38-2.64 3.52-4.54 2.78-5.17-.96-.82-2.53-1.79-4.55-2.87 3.13-1.66 4.86-3.07 4.38-3.91-.62-1.1-1.76-2.55-3.3-4.25 3.51-.49 5.61-1.22 5.45-2.17-.21-1.24-.78-3-1.64-5.12 3.47.74 5.69.77 5.87-.18.23-1.24.29-3.08.21-5.38 3.01 1.88 5.08 2.67 5.57 1.84.64-1.09 1.33-2.8 2.03-4.98 2.18 2.8 3.86 4.25 4.61 3.63.97-.81 2.2-2.18 3.61-3.99 1.09 3.37 2.18 5.32 3.09 4.99 1.19-.42 2.82-1.29 4.76-2.51-.13 3.55.23 5.74 1.19 5.75 1.26.01 3.09-.25 5.33-.73-1.33 3.29-1.75 5.47-.84 5.81 1.18.44 2.99.82 5.26 1.14-2.38 2.64-3.52 4.54-2.78 5.17.96.82 2.53 1.79 4.55 2.87-3.13 1.66-4.86 3.07-4.38 3.91.62 1.1 1.76 2.55 3.3 4.25-3.51.49-5.61 1.22-5.45 2.17.21 1.24.78 3 1.64 5.12-3.47-.74-5.69-.77-5.87.18-.23 1.24-.29 3.08-.21 5.38-3.01-1.88-5.08-2.67-5.57-1.84-.64 1.09-1.33 2.8-2.03 4.98-2.19-2.79-3.87-4.25-4.61-3.63z" style="fill:#f98585"/><ellipse cx="150.5" cy="138" rx="61.5" ry="43" style="fill:#d6ffbf"/></svg>